<?xml version="1.0" encoding="UTF-8" standalone="no"?>
<!-- Created with Inkscape (http://www.inkscape.org/) -->

<svg
   viewBox="0 0 16 16"
   version="1.1"
   id="svg37"
   sodipodi:docname="R2 sticky-symbolic.svg"
   width="16"
   height="16"
   inkscape:version="1.3 (0e150ed, 2023-07-21)"
   xmlns:inkscape="http://www.inkscape.org/namespaces/inkscape"
   xmlns:sodipodi="http://sodipodi.sourceforge.net/DTD/sodipodi-0.dtd"
   xmlns="http://www.w3.org/2000/svg"
   xmlns:svg="http://www.w3.org/2000/svg">
  <sodipodi:namedview
     id="namedview39"
     pagecolor="#505050"
     bordercolor="#ffffff"
     borderopacity="1"
     inkscape:showpageshadow="0"
     inkscape:pageopacity="0"
     inkscape:pagecheckerboard="1"
     inkscape:deskcolor="#505050"
     showgrid="true"
     inkscape:zoom="34.297261"
     inkscape:cx="3.6737627"
     inkscape:cy="5.6564283"
     inkscape:window-width="1366"
     inkscape:window-height="703"
     inkscape:window-x="0"
     inkscape:window-y="33"
     inkscape:window-maximized="1"
     inkscape:current-layer="g35">
    <inkscape:grid
       type="xygrid"
       id="grid7688"
       originx="0"
       originy="0"
       spacingy="1"
       spacingx="1"
       units="px"
       visible="true" />
  </sodipodi:namedview>
  <defs
     id="defs7">
    <linearGradient
       id="linearGradient3764"
       x1="1"
       x2="47"
       gradientUnits="userSpaceOnUse"
       gradientTransform="rotate(-90,23.999998,24)">
      <stop
         style="stop-color:#333;stop-opacity:1"
         id="stop2" />
      <stop
         offset="1"
         style="stop-color:#3d3d3d;stop-opacity:1"
         id="stop4" />
    </linearGradient>
  </defs>
  <g
     id="g35"
     transform="matrix(1.1962617,0,0,-1.1962617,-13.475664,44.261683)"
     style="fill:#4d4d4d">
    <path
       d="m 12.679637,35.321264 c 0,0 -0.0011,1.680955 1.671875,1.678059 0,0 5.525835,0.0015 7.106416,3.5e-5 0,0 1.672087,0.0012 1.671875,-1.671875 -3.98e-4,-3.12946 -1.47e-4,-8.135754 -1.47e-4,-8.135754 l -3.620585,-3.564096 -3.897885,-5.88e-4 c 0,0 0.0074,-0.0063 -1.259674,3.92e-4 -1.669999,-0.002 -1.671875,1.676896 -1.671875,1.676896 m 1.045901,-0.648101 h 1.044901 4.179609 v 3.085798 h 3.134706 v 8.228793 h -3.134706 -4.179609 -1.044901 z"
       style="opacity:1;fill:#bfbfbf;fill-opacity:1;stroke:none;stroke-width:1.03685"
       id="path31"
       sodipodi:nodetypes="cscsccccccccccccccc" />
    <path
       d="m 19.225214,23.627659 v 0.99976 2.999279 h 2.999944 0.999981 v -0.534871 l -3.464935,-3.464168 z"
       style="opacity:1;fill:#4d4d4d;fill-opacity:0;stroke:none;stroke-width:0.999999"
       id="path33"
       sodipodi:nodetypes="cccccccc" />
    <rect
       width="5.858963"
       height="0.83573687"
       x="14.975826"
       y="-34.500217"
       style="fill:#bfbfbf;fill-opacity:1;stroke:none;stroke-width:0.78245"
       id="rect14"
       transform="scale(1,-1)" />
    <rect
       width="5.8469181"
       height="0.83573687"
       x="14.980637"
       y="-31.980543"
       style="fill:#bfbfbf;fill-opacity:1;stroke:none;stroke-width:0.781645"
       id="rect14-3"
       transform="scale(1,-1)" />
    <rect
       width="5.8386822"
       height="0.83573687"
       x="14.989058"
       y="-29.479815"
       style="fill:#bfbfbf;fill-opacity:1;stroke:none;stroke-width:0.781095"
       id="rect14-6"
       transform="scale(1,-1)" />
    <rect
       width="2.7535703"
       height="0.83573687"
       x="14.991373"
       y="-26.970358"
       style="fill:#bfbfbf;fill-opacity:1;stroke:none;stroke-width:0.536405"
       id="rect14-3-5"
       transform="scale(1,-1)" />
  </g>
</svg>
