<svg xmlns="http://www.w3.org/2000/svg" width="16" height="16" viewBox="0 0 16 16">
 <defs>
  <style id="current-color-scheme" type="text/css">
   .ColorScheme-Text { color:#404040; } .ColorScheme-Highlight { color:#5294e2; }
  </style>
 </defs>
 <path style="fill:currentColor" class="ColorScheme-Text" d="M 11.5 0 C 9.570312 0 8 1.570312 8 3.5 L 8 7 L 2 7 C 1.449219 7 1 7.449219 1 8 L 1 15 C 1 15.550781 1.449219 16 2 16 L 11 16 C 11.550781 16 12 15.550781 12 15 L 12 8 C 12 7.449219 11.550781 7 11 7 L 10 7 L 10 3.5 C 10 2.671875 10.671875 2 11.5 2 C 12.328125 2 13 2.671875 13 3.5 L 13 6 C 13 6.550781 13.449219 7 14 7 C 14.550781 7 15 6.550781 15 6 L 15 3.5 C 15 1.570312 13.429688 0 11.5 0 Z M 7 12.410156 L 7 13.5 C 7 13.777344 6.777344 14 6.5 14 C 6.222656 14 6 13.777344 6 13.5 L 6 12.40625 C 5.417969 12.203125 5 11.652344 5 11 C 5 10.171875 5.671875 9.5 6.5 9.5 C 7.328125 9.5 8 10.171875 8 11 C 8 11.652344 7.582031 12.203125 7 12.410156 Z M 7 12.410156 "/>
</svg>