<svg xmlns="http://www.w3.org/2000/svg" width="16" height="16" viewBox="0 0 16 16">
 <defs>
  <style id="current-color-scheme" type="text/css">
   .ColorScheme-Text { color:#404040; } .ColorScheme-Highlight { color:#5294e2; }
  </style>
 </defs>
 <path style="fill:currentColor" class="ColorScheme-Text" d="M 1.328125 0.425781 L 13.960938 0.425781 C 14.398438 0.425781 14.75 0.777344 14.75 1.214844 L 14.75 5.160156 C 14.75 5.597656 14.398438 5.953125 13.960938 5.953125 L 1.328125 5.953125 C 0.890625 5.953125 0.539062 5.597656 0.539062 5.160156 L 0.539062 1.214844 C 0.539062 0.777344 0.890625 0.425781 1.328125 0.425781 Z M 2.910156 7.53125 L 7.644531 7.53125 C 8.078125 7.53125 8.433594 7.882812 8.433594 8.320312 L 8.433594 10.691406 L 9.222656 10.691406 L 9.222656 15.425781 L 6.070312 15.425781 L 6.070312 10.691406 L 6.851562 10.691406 L 6.851562 9.109375 L 2.117188 9.109375 C 1.679688 9.109375 1.328125 8.757812 1.328125 8.320312 L 1.328125 6.738281 L 2.910156 6.738281 Z M 12.171875 8.898438 L 13.566406 7.5 L 14.964844 8.898438 C 15.730469 9.667969 15.730469 10.917969 14.964844 11.6875 C 14.191406 12.460938 12.941406 12.460938 12.171875 11.6875 C 11.402344 10.917969 11.402344 9.667969 12.171875 8.898438 Z M 12.171875 8.898438 "/>
</svg>
