<svg xmlns="http://www.w3.org/2000/svg" width="16" height="16" viewBox="0 0 16 16">
 <defs>
  <style id="current-color-scheme" type="text/css">
   .ColorScheme-Text { color:#404040; } .ColorScheme-Highlight { color:#5294e2; }
  </style>
 </defs>
 <path style="fill:currentColor" class="ColorScheme-Text" d="M 12.5 7 L 11.5 7 L 11.5 3.5 C 11.5 1.570312 9.929688 0 8 0 C 6.070312 0 4.5 1.570312 4.5 3.5 L 4.5 7 L 3.5 7 C 2.949219 7 2.5 7.449219 2.5 8 L 2.5 15 C 2.5 15.550781 2.949219 16 3.5 16 L 12.5 16 C 13.050781 16 13.5 15.550781 13.5 15 L 13.5 8 C 13.5 7.449219 13.050781 7 12.5 7 Z M 8.5 12.410156 L 8.5 13.5 C 8.5 13.777344 8.277344 14 8 14 C 7.722656 14 7.5 13.777344 7.5 13.5 L 7.5 12.40625 C 6.917969 12.203125 6.5 11.652344 6.5 11 C 6.5 10.171875 7.171875 9.5 8 9.5 C 8.828125 9.5 9.5 10.171875 9.5 11 C 9.5 11.652344 9.082031 12.203125 8.5 12.410156 Z M 6.5 7 L 6.5 3.5 C 6.5 2.671875 7.171875 2 8 2 C 8.828125 2 9.5 2.671875 9.5 3.5 L 9.5 7 Z M 6.5 7 "></path>
</svg>